inDegrees=no
num_controls=7
num_derivatives=13
num_iterations=87
num_multipliers=7
num_parameters=0
num_slacks=7
num_states=26
objective=0.454904
objective_accelerations=0.043734
objective_balance=0.000778
objective_effort=0.035819
objective_height=0.368470
objective_ligament=0.006104
solver_duration=965.663590
status=Solve_Succeeded
success=true
DataType=double
version=3
OpenSimVersion=4.5
endheader
time	/jointset/ground_pelvis/pelvis_tilt/value	/jointset/ground_pelvis/pelvis_tx/value	/jointset/ground_pelvis/pelvis_ty/value	/jointset/hip_r/hip_flexion_r/value	/jointset/hip_r/hip_adduction_r/value	/jointset/hip_r/hip_rotation_r/value	/jointset/back/lumbar_extension/value	/jointset/patellofemoral_r/patellar_flexion_r/value	/jointset/knee_r/knee_flexion_r/value	/jointset/knee_r/knee_adduction_r/value	/jointset/knee_r/knee_rotation_r/value	/jointset/ankle_r/ankle_angle_r/value	/jointset/subtalar_r/subtalar_angle_r/value	/jointset/ground_pelvis/pelvis_tilt/speed	/jointset/ground_pelvis/pelvis_tx/speed	/jointset/ground_pelvis/pelvis_ty/speed	/jointset/hip_r/hip_flexion_r/speed	/jointset/hip_r/hip_adduction_r/speed	/jointset/hip_r/hip_rotation_r/speed	/jointset/back/lumbar_extension/speed	/jointset/patellofemoral_r/patellar_flexion_r/speed	/jointset/knee_r/knee_flexion_r/speed	/jointset/knee_r/knee_adduction_r/speed	/jointset/knee_r/knee_rotation_r/speed	/jointset/ankle_r/ankle_angle_r/speed	/jointset/subtalar_r/subtalar_angle_r/speed	/forceset/tau_hip_flexion_r	/forceset/tau_hip_adduction_r	/forceset/tau_hip_rotation_r	/forceset/tau_knee_flexion_r	/forceset/tau_ankle_angle_r	/forceset/tau_subtalar_angle_r	/forceset/tau_lumbar_extension	lambda_cid13_p0	lambda_cid14_p0	lambda_cid14_p1	lambda_cid14_p2	lambda_cid14_p3	lambda_cid14_p4	lambda_cid14_p5	/jointset/ground_pelvis/pelvis_tilt/accel	/jointset/ground_pelvis/pelvis_tx/accel	/jointset/ground_pelvis/pelvis_ty/accel	/jointset/hip_r/hip_flexion_r/accel	/jointset/hip_r/hip_adduction_r/accel	/jointset/hip_r/hip_rotation_r/accel	/jointset/back/lumbar_extension/accel	/jointset/patellofemoral_r/patellar_flexion_r/accel	/jointset/knee_r/knee_flexion_r/accel	/jointset/knee_r/knee_adduction_r/accel	/jointset/knee_r/knee_rotation_r/accel	/jointset/ankle_r/ankle_angle_r/accel	/jointset/subtalar_r/subtalar_angle_r/accel	gamma_cid13_p0	gamma_cid14_p0	gamma_cid14_p1	gamma_cid14_p2	gamma_cid14_p3	gamma_cid14_p4	gamma_cid14_p5
1.5	-0.06079115274244018	0.04361549502537953	0.8268598434644807	0.7504558600102471	-0.2521808407992693	-0.06266257166760711	-0.6200997203779809	0.9151034263051762	0.9151034263053117	0.06517480823919386	0.1742063373260543	0.2999693862038771	0.09433060332478353	0.4031559284152944	0.2045752885479486	0.458087954004601	-1.846059575044106	0.04008545803213906	-0.4928407705148018	0.7993672732645162	-1.882667114938315	-1.882667114938336	0.09946930702314645	0.001976451807620282	-0.517601505739244	-0.1080164826639281	-0.14446649338367	-0.003515070406257812	0.03492461572575895	-0.3104485860666092	0.01033926730209567	-0.01520389616057127	0.2037236412545331	-10.04636160549576	-39.6707156859681	-12.36099080979725	1.035499066488863	-2.271729500735586	-635.2322223262412	61.3487228169405	0.03594269165760718	0.4983822138019167	-0.4237922760718008	-0.925089079881928	0.1907017666614761	-0.1642113498662383	1.682417358673739	-1.404164401664	-1.404164401663997	0.4967972881785698	-0.01178440569228627	-0.5661698692834295	0.1715284903625907	8.105866122196308e-08	3.575703375246776e-09	-1.280255536584426e-06	2.132996404585472e-07	1.294131179285708e-07	1.49914116641944e-07	-8.678733381547374e-07
1.51	-0.05675808753269441	0.04568596286538793	0.8314185977630273	0.7319509834024548	-0.2517709966670517	-0.06759933590162229	-0.6120232624581978	0.8962089480897849	0.8962089480898422	0.06619500143303728	0.1742267082773242	0.2947656445307072	0.09325832114293926	0.4034035420425701	0.2094947067387331	0.4535663681812105	-1.854672391660706	0.04187319218996991	-0.4944617047363905	0.8158155318340899	-1.895964036332077	-1.895964036332095	0.1045880475460407	0.002097116256241908	-0.5230663310509742	-0.1064342872390434	-0.137831532307514	-0.005028621397173379	0.0341821917383225	-0.3066241813169888	0.01225362741977831	-0.01560692832285389	0.197540890754056	-11.0458842556791	-38.79943334072086	-12.25418109893941	0.8707890335705437	-2.433519667202947	-630.892468183315	61.19584990151225	0.01113590684940789	0.4852051991481017	-0.4807907152919899	-0.79287267913977	0.1712557071151596	-0.1533519433353514	1.609713277680578	-1.25279961558416	-1.252799615583639	0.5220738908685818	0.02393420789279626	-0.5245342107926909	0.1522857098096185	8.491028548098674e-08	1.64317326877851e-08	-1.145133188930728e-06	2.938265065673672e-07	1.083015613244458e-07	1.554117842867896e-07	-7.799708522098728e-07
1.52	-0.05272415314495471	0.0478049216027906	0.835929246407376	0.7133672796831766	-0.251343585899895	-0.07255077297486265	-0.6037855853184038	0.8771894319389801	0.8771894319389709	0.06726691432343766	0.1742482743406215	0.2895096755346844	0.09220200504359616	0.4033297640133088	0.2142734680268036	0.4484668231649466	-1.861824997340942	0.04359878501864256	-0.4957753383591744	0.8316111172669066	-1.907674702019913	-1.907674702019928	0.1098132463298887	0.002215474214997086	-0.5280469703097019	-0.1048232661638355	-0.1311965712313964	-0.006542172388077375	0.03343976775079776	-0.3027997765673806	0.01416798753746371	-0.01600996048511641	0.1913581402535458	-12.04723319488258	-37.93054036130346	-12.1460279872388	0.7038521135054572	-2.603000562288675	-626.5839373212345	61.08063899220604	-0.02833563964964039	0.4702508332589523	-0.5393841146465058	-0.6330468926089813	0.1782735008298587	-0.1027512301051058	1.551882731322415	-1.086913260478701	-1.086913260478696	0.5180889403694081	-0.01224570366565417	-0.4693326586830973	0.1772936204271416	9.095060025157881e-08	2.738458763608613e-08	-1.077318230752361e-06	3.682751013955508e-07	9.510575271939074e-08	1.648007928719171e-07	-7.397631657261698e-07
1.53	-0.04869257682426614	0.04997089630240406	0.8403860573954478	0.6947194236995343	-0.250899303509085	-0.07751360425908481	-0.5953933852287351	0.8580608395656263	0.8580608395656363	0.0683918592537468	0.1742709226534636	0.2842063247745397	0.0911618340497239	0.4029305232991811	0.2188906132744112	0.4428035065890463	-1.867491669410899	0.04524406262915324	-0.4967324986361895	0.8467017402858555	-1.917765610341326	-1.91776561034133	0.1151977542572132	0.002307955915173269	-0.5325395089685476	-0.1032097955161897	-0.1244986329203918	-0.008164167998718963	0.03268038193923092	-0.2990826746194906	0.01606950097033339	-0.01644320827005901	0.1851031414928456	-13.04711449923071	-37.07948668294289	-12.05556016415883	0.5413789931241481	-2.713566317941575	-622.4150518361789	60.9738136902569	-0.053962147708148	0.4528351284881987	-0.5935484953412897	-0.4952935260449117	0.1555982875572107	-0.08329140341482674	1.468578030323597	-0.9284760302755175	-0.9284760302738165	0.5517890513271988	0.01912438466794194	-0.4266334607928637	0.153430022460986	9.931639869071228e-08	3.631531982238506e-08	-1.081017373891531e-06	4.362655329880582e-07	9.032042636334725e-08	1.783243512060942e-07	-7.502312036699502e-07
1.54	-0.04466664168279774	0.05218212020608909	0.8447834866045048	0.6760225377628194	-0.2504389796628838	-0.0824842257414635	-0.5868540937202495	0.8388396788265963	0.8388396788266299	0.06957128072983677	0.1742943216388582	0.2788605648295445	0.0901378090094343	0.4022015281684899	0.2233233088411167	0.4365904673618844	-1.87163098795509	0.0468070760954763	-0.4973333779897998	0.8610294010304896	-1.926188375154856	-1.926188375154849	0.1207085554810695	0.002365608727694988	-0.5365288072796993	-0.1015940754474415	-0.1178006946094286	-0.009786163609349726	0.03192099612757476	-0.2953655726716126	0.01797101440320567	-0.01687645605498291	0.1788481427321092	-14.04170396768745	-36.23106685892552	-11.96382118632867	0.3767239033667927	-2.83100767381354	-618.2812134886146	60.90842456139544	-0.09428652296216204	0.4333608970783298	-0.649328644898855	-0.3275761874554548	0.1618206719923549	-0.03149504542399231	1.399290276459517	-0.7532845589021172	-0.7532845589021173	0.5433475996758408	-0.01921148119662337	-0.3686845891445534	0.177743504647538	1.081088639951407e-07	4.655573033396402e-08	-1.090634964619293e-06	5.081929935870831e-07	8.489774305122389e-08	1.966537819725035e-07	-7.683897628310966e-07
1.55	-0.04064963992753818	0.05443668224731726	0.8491160978847877	0.6572919395534434	-0.2499635205675213	-0.0874589619316016	-0.5781755700329613	0.8195427216782268	0.8195427216782371	0.0708066231640869	0.1743180949576256	0.2734774312824041	0.08912983589236365	0.4011399876378929	0.2275510619154124	0.4298448195364808	-1.874218058869199	0.04826821597153839	-0.4975552281460601	0.8745290612029782	-1.932907532297099	-1.932907532297099	0.1263761154635903	0.002382375885901417	-0.5400090711932971	-0.1000018856704754	-0.1109962172270102	-0.01148454627950506	0.03114764074091832	-0.2918724521852341	0.02002219083334571	-0.01740563450953989	0.1725005491327515	-15.02825474655814	-35.35434230948339	-11.9170964419872	0.2287351326687222	-2.926983885303414	-614.3230508176115	60.80626786797874	-0.1209087992778964	0.4117919527332306	-0.7001814692253192	-0.1836763576793432	0.1357854263096693	-0.00856990481948865	1.303362604306021	-0.586927468501278	-0.5869274685023447	0.5807424494229817	0.01121387954556011	-0.3243412509701151	0.1496546114163736	1.173929237313219e-07	5.830511804640902e-08	-1.107071636264347e-06	5.846565963023129e-07	7.87407136810085e-08	2.205204135847452e-07	-7.954091399165992e-07
1.56	-0.03664501777381472	0.05673238370731421	0.8533786529632439	0.6385435898720657	-0.2494739451172119	-0.09243412460412458	-0.5693664380006167	0.8001874337231114	0.8001874337231002	0.07209909764855826	0.1743418545610085	0.268062166304427	0.0881377242525023	0.3997256078605072	0.2315511925948734	0.4225792269964525	-1.875181282354934	0.04963034708345412	-0.497418674466011	0.8871510700419525	-1.937854536503979	-1.937854536503985	0.1321349655214249	0.002362865652758049	-0.542955093447007	-0.09842178000570538	-0.1041917398446371	-0.01318292894965479	0.03037428535419243	-0.2883793316988674	0.02207336726348672	-0.01793481296408719	0.1661529555333542	-16.00449905593443	-34.47936884595915	-11.86874843319116	0.07828245853076214	-3.031644994920692	-610.3885360241686	60.74870690608871	-0.164854372319734	0.387836418111182	-0.7533175878237911	-0.002806701780245164	0.1420189191631041	0.04018572183801904	1.223760009756758	-0.3988539718294462	-0.3988539718294454	0.5616056147386822	-0.02646695946665879	-0.2618362571671525	0.1753266822082397	1.263875325713268e-07	7.003343629020138e-08	-1.125421821679477e-06	6.592071606812884e-07	7.273975579389676e-08	2.460833365654153e-07	-8.258200027553695e-07
1.57	-0.03265625614799608	0.05906687755317833	0.8575660329036938	0.6197937107726353	-0.248971347796201	-0.09740603965375115	-0.5604357453420866	0.7807915962476816	0.7807915962476688	0.07344982054481354	0.1743652478134997	0.2626200921858469	0.08716120363544466	0.3979669311483631	0.2353019849294767	0.4148162424332363	-1.874511287367578	0.05086749642395146	-0.4969057265065167	0.8988196245473892	-1.941000946997945	-1.941000946997942	0.1380236452043492	0.002312665287234499	-0.5453671550724338	-0.09688952399966001	-0.09732254506681799	-0.01498687241051389	0.02959042608768192	-0.285125360942722	0.02421882125824809	-0.01854012823806156	0.1597575907705545	-16.96865110842893	-33.5982365207063	-11.85788276939087	-0.05991767550257451	-3.096811181477886	-606.7149552184734	60.67928956647307	-0.1903365861302048	0.3618746115386036	-0.7998087485731208	0.1443994522696364	0.1113376644675026	0.06582665872798242	1.113227603732458	-0.2257608484920274	-0.225760848490595	0.6044582001606942	0.005359165893886112	-0.2169718878144807	0.1410069861315825	1.350203277911116e-07	8.173541769817795e-08	-1.146163899307201e-06	7.313664271399458e-07	6.693388726066458e-08	2.737666237566212e-07	-8.604702227857244e-07
1.58	-0.02868687374238904	0.06143751411646948	0.8616733790269113	0.601059030993731	-0.2484570240371833	-0.1023710297586425	-0.5513934022519443	0.7613736494152489	0.7613736494152363	0.07485982204892548	0.1743880702105262	0.2571566812964958	0.08619977196371377	0.3958497638174702	0.2387797360802803	0.4065724635498861	-1.872141418249171	0.0519756346834221	-0.4960336855181037	0.9094811563646247	-1.942276407904382	-1.94227640790437	0.1439906870909312	0.002248694561274113	-0.5472224476012255	-0.09540399094046409	-0.09045335028904668	-0.0167908158713757	0.02880656682113223	-0.2818713901865881	0.02636427525300754	-0.01914544351204003	0.1533622260077139	-17.91942645250794	-32.71754082732043	-11.84500837145096	-0.2008206865940116	-3.173717935315423	-603.047441898468	60.65666938729206	-0.2365524960692781	0.3332281813510349	-0.8494764518506136	0.3371681244303198	0.1162167029577856	0.1120043276218766	1.022355472116645	-0.02466405432352615	-0.02466405432352612	0.5772780554702732	-0.02922103155410312	-0.1504824378403531	0.1659820928382892	1.433417860561083e-07	9.294599184728864e-08	-1.171632274746221e-06	7.994020501301168e-07	6.182681014853959e-08	3.029249987458679e-07	-8.985322073247815e-07
1.59	-0.02474040918728378	0.06384149717797091	0.865695982128633	0.5823565219939625	-0.2479322722195819	-0.1073254754624221	-0.5422497269604172	0.741952326263302	0.7419523262633062	0.07632985490515051	0.174410087824168	0.2516775005227712	0.08525296752104913	0.393380673457851	0.241964269514554	0.3978755547238459	-1.868062370543852	0.05295753880028178	-0.4947980167436676	0.9190688455737486	-1.941661175786002	-1.941661175785997	0.1500071677502668	0.002143693120867437	-0.5485146161802219	-0.0939549755735751	-0.08354855359886124	-0.01866720312826442	0.02801366446538915	-0.2789261859526021	0.02863686082608612	-0.01985191115239091	0.1469656366004342	-18.85606074840009	-31.82841284829138	-11.88162866275331	-0.3257898410144751	-3.21992718468119	-599.7507843335642	60.61094910086124	-0.2614519038922701	0.3031859560167576	-0.8906178775084128	0.4879859997898673	0.0866255373935509	0.1381696354532837	0.8992171905508461	0.1536426603648748	0.1536426603638038	0.6123770870945744	-0.002661717430271013	-0.1036854182637351	0.1345631778058423	1.512407155967496e-07	1.034896561450814e-07	-1.203514911500569e-06	8.618412998416277e-07	5.766809282220288e-08	3.340852786038845e-07	-9.41224443697077e-07
